<?xml version="1.0" encoding="UTF-8" standalone="no"?>
<svg
   id="Capa_1"
   enable-background="new 0 0 511.999 511.999"
   height="512"
   viewBox="0 0 511.999 511.999"
   width="512"
   version="1.1"
   xmlns="http://www.w3.org/2000/svg"
   xmlns:svg="http://www.w3.org/2000/svg">
  <mask id="boltMask">
    <rect width="512" height="512" x="0" y="0" fill="white" />
    <path
      d="m 367.01285,214.96463 c -1.50991,-3.14474 -1.88372,-11.46563 -5.3838,-11.46563 h -58.05699 l 45.19573,-89.67233 c 1.40319,-2.81608 1.26129,-6.16456 -0.39112,-8.84723 -1.66939,-2.68267 -4.60068,-4.31689 -7.74542,-4.31689 H 225.40681 c -3.78387,0 -7.17723,2.35401 -8.50947,5.89836 L 162.32225,252.0945 c -1.04845,2.79788 -0.65733,5.92503 1.03025,8.37606 1.70578,2.45163 4.49456,3.91728 7.47921,3.91728 h 61.11259 l -54.53706,126.41909 c -1.03025,4.14831 0.95931,8.4561 4.79655,10.35714 3.82571,1.88587 42.1276,0.87259 44.81209,-2.46922 L 365.92863,224.5935 c 2.18603,-2.73603 2.61233,-6.47564 1.08422,-9.62887 z"
      fill="black" />
  </mask>
  <g transform="scale(0.8)" transform-origin="center">
    <path
       d="m 359.0789,214.96463 c -1.50992,-3.14474 -4.68982,-5.15189 -8.18991,-5.15189 H 292.832 l 48.00183,-95.98607 c 1.40319,-2.81608 1.2613,-6.16456 -0.39112,-8.84723 -1.66939,-2.68267 -4.60068,-4.31689 -7.74542,-4.31689 h -81.55113 c -3.78387,0 -7.17723,2.35401 -8.50947,5.89836 L 188.0616,252.0945 c -1.04845,2.79788 -0.65732,5.92503 1.03025,8.37606 1.70578,2.45163 4.49457,3.91728 7.47922,3.91728 h 61.11258 l -65.03676,135.13541 c -1.03026,4.14831 0.95931,8.45611 4.79654,10.35714 3.82572,1.88587 8.45429,0.87259 11.13878,-2.46922 L 357.99467,224.5935 c 2.18604,-2.73603 2.61233,-6.47564 1.08423,-9.62887 z"
       id="bolt2"
       style="fill:#fece85;fill-opacity:1;stroke-width:0.60639" />
    <path
       d="m 340.88723,214.96463 c -1.50991,-3.14474 -4.68982,-5.15189 -8.1899,-5.15189 h -58.05699 l 48.00183,-95.98607 c 1.40319,-2.81608 1.26129,-6.16456 -0.39112,-8.84723 -1.66939,-2.68267 -4.60068,-4.31689 -7.74542,-4.31689 H 232.9545 c -3.78387,0 -7.17723,2.35401 -8.50947,5.89836 L 169.86994,252.0945 c -1.04845,2.79788 -0.65733,5.92503 1.03025,8.37606 1.70578,2.45163 4.49456,3.91728 7.47921,3.91728 h 61.11259 l -54.53706,126.41909 c -1.03025,4.14831 0.95931,8.4561 4.79655,10.35714 3.82571,1.88587 8.45429,0.87259 11.13878,-2.46922 L 339.80301,224.5935 c 2.18603,-2.73603 2.61233,-6.47564 1.08422,-9.62887 z"
       id="bolt1"
       style="fill:#fedba6;fill-opacity:1;stroke-width:0.60639" />
  </g>
  <g mask="url(#boltMask)">
    <g class="big bolt" transform-origin="230 250" transform="scale(1)">
      <path
        d="m 497.95427,111.19478 -68.3224,7.5965 c -0.77153,0.0857 -1.43049,0.59472 -1.70839,1.31947 -0.27752,0.7249 -0.12838,1.54381 0.38796,2.12339 l 9.11509,10.23387 -31.90812,6.66504 c -0.7253,0.15147 -1.31459,0.67792 -1.54654,1.38139 -0.2321,0.70344 -0.0716,1.4772 0.42109,2.03033 l 10.12813,11.37137 -48.25604,17.68785"
        fill="none"
        stroke="#fedba6"
        stroke-width="15"
        id="path1" />
      <path
        d="m 326.30444,327.00492 32.93437,60.80795 c 0.37178,0.68671 1.09564,1.10829 1.87633,1.09306 0.78067,-0.0156 1.48754,-0.46451 1.83237,-1.16511 l 6.08965,-12.36866 18.2867,27.2191 c 0.41564,0.61872 1.12933,0.96877 1.87281,0.91877 0.74348,-0.0498 1.40397,-0.49223 1.73309,-1.16079 l 6.76656,-13.74334 34.74712,38.28568"
        fill="none"
        stroke="#fedba6"
        stroke-width="15"
        id="path2" />
      <path
        d="m 157.63608,172.63184 -32.2831,-41.9408 c -0.36447,-0.47367 -0.96271,-0.70416 -1.55076,-0.59768 -0.58799,0.10674 -1.0675,0.53195 -1.24283,1.10328 l -3.09674,10.08676 -17.12896,-18.34251 c -0.38933,-0.41695 -0.97119,-0.59463 -1.52689,-0.46641 -0.55573,0.12808 -1.000977,0.54273 -1.168337,1.08794 l -3.44099,11.20784 -30.912951,-24.70215"
        fill="none"
        stroke="#fedba6"
        stroke-width="15"
        id="path3" />
    </g>
  </g>
  <path
     class="small bolt"
     transform-origin="164 374" transform="scale(1)"
     d="m 164.19779,375.76408 -43.94385,5.06441 c -0.49622,0.0571 -0.91894,0.38638 -1.09588,0.85346 -0.17671,0.46715 -0.0786,0.99371 0.25511,1.36532 l 5.8917,6.56168 -20.51474,4.37109 c -0.46632,0.0993 -0.84415,0.43961 -0.99158,0.89287 -0.14753,0.45325 -0.0423,0.95072 0.2762,1.30537 l 6.54648,7.29101 -31.005687,11.50612"
     fill="none"
     stroke="#fedba6"
     stroke-width="15"
     id="path4" />
  <path
     class="small bolt"
     transform-origin="134 294" transform="scale(1)"
     d="M 136.21326,295.78802 94.4965,281.07674 c -0.47103,-0.1662 -0.99532,-0.0556 -1.3591,0.2867 -0.36361,0.34241 -0.50625,0.85869 -0.36921,1.33898 l 2.41909,8.48032 -20.354753,-5.06408 c -0.462658,-0.11517 -0.951429,0.0251 -1.282639,0.36784 -0.331277,0.34271 -0.454776,0.83596 -0.323963,1.29434 l 2.687898,9.42287 -32.911726,-3.24992"
     fill="none"
     stroke="#fedba6"
     stroke-width="15"
     id="path5" />
  <path
     class="small bolt"
     transform-origin="369 267" transform="scale(1)"
     d="m 463.72533,260.24058 -42.86615,-10.91801 c -0.48402,-0.12338 -0.99631,0.0337 -1.32799,0.4072 -0.3315,0.37358 -0.42735,0.90056 -0.24787,1.36666 l 3.16849,8.22974 -20.72636,-3.22173 c -0.47111,-0.0733 -0.94536,0.11017 -1.24456,0.48117 -0.29926,0.371 -0.37814,0.87331 -0.2068,1.31815 l 3.52058,9.14444 -33.07052,-0.29083"
     fill="none"
     stroke="#fedba6"
     stroke-width="15"
     id="path6" />
  <!-- <circle id="center" cx="230" cy="250" r="6.0381484" />
  <circle id="center4" cx="134.34882" cy="294.35977" r="6.0381484" />
  <circle id="center5" cx="164.66185" cy="374.47626" r="6.0381484" />
  <circle id="center6" cx="369.82535" cy="267.31256" r="6.0381484" /> -->
</svg>
