<?xml version="1.0" encoding="UTF-8" standalone="no"?>
<svg
   id="_x31_6"
   enable-background="new 0 0 512 512"
   height="512"
   viewBox="0 0 512 512"
   width="512"
   version="1.1"
   xmlns="http://www.w3.org/2000/svg"
   xmlns:svg="http://www.w3.org/2000/svg">
  <defs
     id="defs69" />
  <g
     clip-path="url(#clipPath)"
     id="circle"
     style="display:inline">
    <g
       id="g1">
      <path
         id="orange"
         d="m 441,283.261 c 0,102.72 -81.96,186.68 -183.96,189.88 h -0.12 c -1.96,0.08 -3.92,0.12 -5.92,0.12 -2.24,0 -4.44,-0.04 -6.64,-0.12 -1.04,-0.04 -2.08,-0.08 -3.12,-0.12 C 141,467.901 61,384.741 61,283.261 61,181.781 141,98.621 241.24,93.501 l 3.12,-0.12 c 2.2,-0.08 4.4,-0.12 6.64,-0.12 2,0 3.96,0.04 5.92,0.12 h 0.12 c 102,3.2 183.96,87.16 183.96,189.88 z"
         fill="#feb41c" />
    </g>
    <g
       id="g4">
      <g
         id="g2">
        <path
           d="m 441,283.261 c 0,102.72 -81.96,186.68 -183.96,189.88 h -0.12 c -6,-0.2 -11.96,-0.68 -17.88,-1.44 93.52,-11.84 166.04,-91.8 166.04,-188.44 0,-96.64 -72.52,-176.6 -166.04,-188.44 5.92,-0.76 11.88,-1.24 17.88,-1.44 h 0.12 c 102,3.2 183.96,87.16 183.96,189.88 z"
           fill="#fe7b1c"
           id="path1" />
      </g>
      <g
         id="g3">
        <path
           d="m 261.84,471.701 c -5.8,0.76 -11.6,1.2 -17.48,1.44 h -0.52 c -0.88,-0.04 -1.72,-0.08 -2.6,-0.12 C 141,467.901 61,384.741 61,283.261 c 0,-101.48 80,-184.64 180.24,-189.76 0.88,-0.04 1.72,-0.08 2.6,-0.12 h 0.52 c 5.88,0.24 11.68,0.68 17.48,1.44 -93.52,11.84 -166.04,91.8 -166.04,188.44 0,96.64 72.52,176.6 166.04,188.44 z"
           fill="#fe7b1c"
           id="path2" />
      </g>
    </g>
  </g>
  <clipPath
     id="clipPath"
     class="animation"
     transform="scale(0.5)"
     transform-origin="256 150">
    <use
       href="#orange"
       id="use5" />
  </clipPath>
  <g
     id="clothes"
     style="display:inline">
    <g
       id="g9"
       style="display:inline">
      <path
         d="M 322.836,323.171 H 182.489 c -34.28,0 -62.166,27.887 -62.166,62.165 v 83.926 c 0,2.211 1.791,4 4,4 H 381 c 2.209,0 4,-1.789 4,-4 v -83.926 c 0,-34.279 -27.887,-62.165 -62.164,-62.165 z"
         fill="#f00083"
         id="path8" />
    </g>
    <g
       id="g10"
       style="display:inline">
      <path
         d="m 322.836,323.171 h -20 c 34.277,0 62.164,27.887 62.164,62.165 v 83.926 c 0,2.211 -1.791,4 -4,4 h 20 c 2.209,0 4,-1.789 4,-4 v -83.926 c 0,-34.279 -27.887,-62.165 -62.164,-62.165 z"
         fill="#ab0083"
         id="path9" />
    </g>
    <g
       id="g11"
       style="display:inline">
      <path
         d="m 385,423.421 c 0,1.12 -0.48,2.2 -1.36,3 l -2.2,1.92 -16.44,14.4 -18.04,15.8 c -1.48,1.28 -3.68,1.32 -5.2,0.04 l -24.68,-20.56 -29.52,29.48 c -0.72,0.76 -1.76,1.16 -2.8,1.16 h -0.16 c -1.12,-0.04 -2.16,-0.52 -2.88,-1.4 l -24.88,-29 -33.64,29.44 c -0.8,0.68 -1.88,1.04 -2.92,0.96 -1.04,-0.08 -2.04,-0.56 -2.76,-1.4 l -25.08,-29.28 -29.12,20.8 c -1.36,0.96 -3.16,1 -4.56,0.08 l -26.64,-17.68 v -0.04 l -10,-6.64 c -1.84,-1.24 -2.36,-3.72 -1.12,-5.56 v -41.44 c -0.88,-1.28 -0.92,-3 0,-4.36 1.2,-1.88 3.68,-2.36 5.52,-1.12 l 34.4,22.8 29.84,-21.32 c 1.68,-1.2 4,-0.92 5.36,0.64 l 24.88,29.04 33.6,-29.44 c 0.8,-0.68 1.88,-1.08 2.92,-0.96 1.08,0.08 2.08,0.56 2.76,1.36 l 24.68,28.8 29.04,-29 c 1.48,-1.48 3.8,-1.6 5.4,-0.24 l 24.88,20.72 20.72,-18.16 13.36,-11.68 c 1.68,-1.48 4.2,-1.28 5.64,0.36 0.04,0.08 0.12,0.12 0.16,0.2 0.92,1.16 1.08,2.68 0.52,3.96 -0.16,0.4 -0.4,0.76 -0.68,1.08 v 40.6 c 0.68,0.76 1,1.72 1,2.64 z"
         fill="#113eff"
         id="path10" />
    </g>
    <g
       id="g12"
       style="display:inline">
      <path
         d="m 385,385.341 v 38.08 c 0,1.12 -0.48,2.2 -1.36,3 l -2.2,1.92 -16.44,14.4 v -56.48 l 13.36,-11.68 c 1.68,-1.48 4.2,-1.28 5.64,0.36 0.04,0.08 0.12,0.12 0.16,0.2 0.24,1.32 0.4,2.64 0.52,3.96 0.2,2.08 0.32,4.16 0.32,6.24 z"
         fill="#0d30a0"
         id="path11" />
    </g>
    <g
       id="g13"
       style="display:inline">
      <path
         d="m 308.008,324.534 c -0.76,-0.867 -1.856,-1.364 -3.008,-1.364 H 198.117 c -1.152,0 -2.248,0.497 -3.008,1.364 -0.76,0.867 -1.109,2.019 -0.957,3.16 3.721,28.113 28.4,49.312 57.406,49.312 29.006,0 53.686,-21.199 57.406,-49.312 0.153,-1.141 -0.196,-2.293 -0.956,-3.16 z"
         fill="#113eff"
         id="path12" />
    </g>
  </g>
  <g
     id="horizon"
     style="display:inline">
    <g
       id="g16">
      <path
         d="M 437,473.261 H 99.16 c -2.209,0 -4,-1.789 -4,-4 0,-2.211 1.791,-4 4,-4 H 437 c 2.209,0 4,1.789 4,4 0,2.21 -1.791,4 -4,4 z"
         fill="#680455"
         id="path15" />
    </g>
    <g
       id="g17">
      <path
         d="M 85,473.261 H 61 c -2.209,0 -4,-1.789 -4,-4 0,-2.211 1.791,-4 4,-4 h 24 c 2.209,0 4,1.789 4,4 0,2.21 -1.791,4 -4,4 z"
         fill="#680455"
         id="path16" />
    </g>
  </g>
  <g
     id="g6"
     class="animation"
     transform="scale(0.5)"
     transform-origin="256 200">
    <path
       d="m 61.098,212.479 c -3.471,0 -6.293,-2.824 -6.293,-6.293 0,-3.468 2.822,-6.289 6.293,-6.289 3.469,0 6.291,2.82 6.291,6.289 0,3.469 -2.822,6.293 -6.291,6.293 z"
       fill="#c15914"
       id="path5" />
  </g>
  <g
     id="g7"
     class="animation"
     transform="scale(0.5)"
     transform-origin="256 200">
    <path
       d="m 353.098,292.479 c -3.471,0 -6.293,-2.824 -6.293,-6.293 0,-3.468 2.822,-6.289 6.293,-6.289 3.469,0 6.291,2.82 6.291,6.289 0,3.469 -2.822,6.293 -6.291,6.293 z"
       fill="#680455"
       id="path6" />
  </g>
  <g
     id="g73"
     class="animation"
     transform="scale(0.5)"
     transform-origin="256 200">
    <g
       id="g21">
      <path
         d="m 424.996,221.261 c -0.762,0 -1.533,-0.219 -2.215,-0.672 l -9.699,-6.465 -0.713,0.508 c -1.803,1.289 -4.299,0.871 -5.582,-0.922 -1.287,-1.793 -0.873,-4.293 0.922,-5.578 l 2.961,-2.121 c 1.354,-0.976 3.168,-1.004 4.549,-0.078 l 8.672,5.781 13.781,-20.672 c 0.664,-0.996 1.742,-1.644 2.934,-1.762 1.209,-0.102 2.375,0.305 3.222,1.152 l 16.551,16.551 13.293,-19.942 c 1.224,-1.836 3.705,-2.332 5.547,-1.109 1.838,1.226 2.334,3.707 1.109,5.547 l -16,24 c -0.664,0.996 -1.742,1.644 -2.934,1.762 -1.195,0.106 -2.373,-0.305 -3.222,-1.152 l -16.551,-16.551 -13.293,19.942 c -0.771,1.156 -2.039,1.781 -3.332,1.781 z"
         fill="#680455"
         id="path20" />
    </g>
    <g
       id="g22">
      <path
         d="m 385.004,233.261 c -1.25,0 -2.48,-0.582 -3.262,-1.68 -1.281,-1.797 -0.863,-4.297 0.936,-5.578 l 15.6,-11.121 c 1.803,-1.281 4.297,-0.863 5.58,0.937 1.281,1.797 0.863,4.297 -0.936,5.578 l -15.6,11.121 c -0.705,0.501 -1.515,0.743 -2.318,0.743 z"
         fill="#680455"
         id="path21" />
    </g>
  </g>
  <g
     id="g23"
     class="animation"
     transform="scale(0.5)"
     transform-origin="256 200">
    <path
       d="m 109.004,125.261 c -1.293,0 -2.561,-0.625 -3.332,-1.781 L 91.631,102.418 78.789,108.84 c -1.115,0.559 -2.428,0.559 -3.547,0.016 -1.119,-0.547 -1.92,-1.586 -2.164,-2.808 L 70.022,90.763 54.487,96.978 c -1.764,0.692 -3.768,0.078 -4.814,-1.496 l -16,-24 c -1.225,-1.84 -0.729,-4.32 1.109,-5.547 1.838,-1.227 4.318,-0.73 5.547,1.109 l 14.199,21.301 16.986,-6.797 c 1.102,-0.445 2.346,-0.367 3.391,0.199 1.045,0.566 1.785,1.566 2.018,2.73 l 2.972,14.867 11.316,-5.66 c 1.805,-0.902 4,-0.32 5.117,1.359 l 16,24 c 1.225,1.84 0.729,4.32 -1.109,5.547 -0.682,0.452 -1.453,0.671 -2.215,0.671 z"
       fill="#c15914"
       id="path22" />
  </g>
  <g
     id="g72"
     class="animation"
     transform="scale(0.5)"
     transform-origin="256 200">
    <g
       id="g24">
      <path
         d="m 73.678,167.542 c -0.482,0 -0.972,-0.086 -1.449,-0.273 l -36.68,-14.282 c -2.058,-0.801 -3.078,-3.121 -2.275,-5.18 0.801,-2.051 3.123,-3.086 5.178,-2.273 l 36.68,14.281 c 2.059,0.801 3.078,3.121 2.276,5.18 -0.617,1.578 -2.129,2.547 -3.73,2.547 z"
         fill="#c15914"
         id="path23" />
    </g>
    <g
       id="g25">
      <path
         d="m 109,181.261 c -0.482,0 -0.973,-0.086 -1.447,-0.27 l -20.6,-8 c -2.061,-0.801 -3.082,-3.121 -2.281,-5.18 0.801,-2.059 3.123,-3.074 5.176,-2.281 l 20.6,8 c 2.061,0.801 3.082,3.121 2.281,5.18 -0.616,1.582 -2.127,2.551 -3.729,2.551 z"
         fill="#c15914"
         id="path24" />
    </g>
  </g>
  <g
     id="g26"
     class="animation"
     transform="scale(0.5)"
     transform-origin="256 200">
    <path
       d="m 385.004,125.261 c -1.344,0 -2.654,-0.676 -3.41,-1.902 -1.158,-1.883 -0.572,-4.348 1.311,-5.504 l 52,-32 c 1.875,-1.164 4.342,-0.574 5.502,1.309 1.158,1.883 0.572,4.348 -1.311,5.504 l -52,32 c -0.652,0.401 -1.377,0.593 -2.092,0.593 z"
       fill="#2657a5"
       id="path25" />
  </g>
  <g
     id="g71"
     class="animation"
     transform="scale(0.5)"
     transform-origin="256 200">
    <g
       id="g27">
      <path
         d="m 453.004,285.261 c -0.322,0 -0.648,-0.039 -0.975,-0.121 l -44.801,-11.199 c -2.142,-0.535 -3.445,-2.707 -2.91,-4.848 0.539,-2.148 2.711,-3.441 4.852,-2.91 l 44.801,11.199 c 2.142,0.535 3.445,2.707 2.91,4.848 -0.455,1.82 -2.086,3.031 -3.877,3.031 z"
         fill="#680455"
         id="path26" />
    </g>
    <g
       id="g28">
      <path
         d="m 397.004,271.261 c -0.322,0 -0.648,-0.039 -0.975,-0.121 l -24,-6 c -2.142,-0.535 -3.445,-2.707 -2.91,-4.848 0.537,-2.148 2.715,-3.441 4.852,-2.91 l 24,6 c 2.142,0.535 3.445,2.707 2.91,4.848 -0.455,1.82 -2.086,3.031 -3.877,3.031 z"
         fill="#680455"
         id="path27" />
    </g>
  </g>
  <g
     id="g29"
     class="animation"
     transform="scale(0.5)"
     transform-origin="256 200">
    <path
       d="m 46.358,285.261 c -1.791,0 -3.422,-1.211 -3.877,-3.031 -0.535,-2.141 0.768,-4.312 2.91,-4.848 l 80,-20 c 2.148,-0.531 4.314,0.762 4.851,2.91 0.535,2.141 -0.767,4.312 -2.91,4.848 l -80,20 c -0.326,0.081 -0.652,0.121 -0.974,0.121 z"
       fill="#680455"
       id="path28" />
  </g>
  <g
     id="g70"
     class="animation"
     transform="scale(0.5)"
     transform-origin="256 200">
    <g
       id="g8">
      <path
         d="m 433.063,148.983 c -6.615,-0.102 -11.916,-5.566 -11.814,-12.18 0,-0.023 0,-0.043 0,-0.066 -0.002,-2.18 -1.752,-3.961 -3.94,-3.996 -0.019,0 -0.041,0 -0.062,0 -2.18,0 -3.965,1.75 -3.998,3.938 -0.1,6.555 -5.463,11.816 -11.996,11.816 -0.084,0 -0.166,0 -0.246,0 -2.18,0 -3.965,1.75 -3.998,3.941 v 0.063 c 0.002,2.18 1.752,3.961 3.939,3.996 3.203,0.047 6.197,1.34 8.428,3.641 2.233,2.3 3.434,5.336 3.385,8.539 v 0.066 c 0.002,2.18 1.752,3.961 3.94,3.996 h 0.062 c 2.18,0 3.965,-1.75 3.998,-3.937 0.049,-3.207 1.342,-6.203 3.643,-8.434 2.301,-2.23 5.392,-3.262 8.535,-3.383 2.24,0.144 4.027,-1.727 4.062,-3.938 0,-0.024 0,-0.043 0,-0.066 -10e-4,-2.179 -1.751,-3.96 -3.938,-3.996 z"
         fill="#4f82ff"
         id="path7" />
    </g>
    <g
       id="g30"
       style="display:inline">
      <path
         d="m 401.241,156.499 c -2.209,0 -4,-1.789 -4,-4 0,-2.211 1.791,-4 4,-4 6.439,0 11.822,-5.219 12.002,-11.629 0.061,-2.211 1.869,-3.992 4.11,-3.89 2.209,0.062 3.949,1.902 3.887,4.109 -0.298,10.703 -9.269,19.41 -19.999,19.41 z"
         fill="#2657a5"
         id="path29" />
    </g>
    <g
       id="g31"
       style="display:inline">
      <path
         d="m 416.76,172.499 c -2.209,0 -4,-1.789 -4,-4 0,-6.438 -5.218,-11.82 -11.631,-12 -2.187,-0.063 -4.039,-1.867 -4.008,-4.055 0.029,-2.188 1.691,-3.945 3.879,-3.945 h 0.24 c 10.812,0.301 19.519,9.273 19.519,20 10e-4,2.211 -1.79,4 -3.999,4 z"
         fill="#2657a5"
         id="path30" />
    </g>
    <g
       id="g32"
       style="display:inline">
      <path
         d="m 416.756,172.62 c -0.022,0 -0.045,0 -0.068,0 -2.18,-0.039 -3.928,-1.699 -3.928,-3.879 v -0.242 c 0.149,-4.207 1.479,-8.07 3.85,-11.316 1.303,-1.781 3.803,-2.172 5.59,-0.871 1.783,1.305 2.174,3.805 0.871,5.59 -1.424,1.949 -2.225,4.281 -2.312,6.742 -0.079,2.156 -1.852,3.976 -4.003,3.976 z"
         fill="#2657a5"
         id="path31" />
    </g>
    <g
       id="g33"
       style="display:inline">
      <path
         d="m 421.76,152.101 c -1.043,0 -2.084,-0.406 -2.867,-1.211 -3.644,-3.75 -5.652,-8.687 -5.652,-13.91 0,-2.211 1.791,-4.121 4,-4.121 2.209,0 4,1.672 4,3.883 v 0.238 c 0,3.125 1.203,6.086 3.386,8.332 1.541,1.586 1.506,4.117 -0.078,5.656 -0.777,0.757 -1.783,1.133 -2.789,1.133 z"
         fill="#2657a5"
         id="path32" />
    </g>
  </g>
  <g
     id="body"
     style="display:inline">
    <g
       id="g18"
       style="display:inline">
      <path
         d="m 279.56,308.821 v 16.2 c 0,13.48 -10.96,24.48 -24.48,24.48 h -4.84 c -0.72,0 -1.48,-0.04 -2.2,-0.12 -0.68,-0.04 -1.36,-0.16 -2,-0.28 -0.44,-0.08 -0.88,-0.16 -1.32,-0.28 h -0.04 c -10.84,-2.48 -18.92,-12.24 -18.92,-23.8 v -16.2 c 0,-1.56 0.88,-2.92 2.2,-3.56 0.52,-0.28 1.16,-0.44 1.8,-0.44 h 45.8 c 2.24,0 4,1.8 4,4 z"
         fill="#ffc7be"
         id="path17" />
    </g>
    <g
       id="g20"
       style="display:inline">
      <path
         d="m 279.56,308.821 v 16.2 c 0,13.48 -10.96,24.48 -24.48,24.48 h -4.84 c -0.72,0 -1.48,-0.04 -2.2,-0.12 -0.68,-0.04 -1.36,-0.16 -2,-0.28 -0.44,-0.08 -0.88,-0.16 -1.32,-0.28 10.8,-2.56 18.84,-12.24 18.84,-23.8 v -3.76 h -37.8 v -12.44 c 0,-1.56 0.88,-2.92 2.2,-3.56 h 33.32 c -0.52,-0.24 -1.08,-0.44 -1.72,-0.44 h 16 c 2.24,0 4,1.8 4,4 z"
         fill="#e59991"
         id="path19" />
    </g>
    <g
       id="g35"
       style="display:inline">
      <path
         d="m 365,149.261 c 0,28 -2.36,36.92 -4.08,38.64 l -0.12,0.12 c -0.76,0.72 -1.72,1.08 -2.72,1.08 -0.32,0 -0.64,-0.12 -1,-0.2 l -0.08,0.36 c 0,0 -4,-4 -8.08,-4.16 -0.48,-0.04 -0.96,-0.04 -1.4,-0.08 -7.56,-0.28 -6.52,0.24 -6.52,0.24 v 16 l -2.64,-0.88 0.52,6.04 c 1.84,1.92 3.12,2.92 3.16,2.92 1.76,1.32 2.16,3.84 0.84,5.6 -0.76,1.08 -1.96,1.64 -3.2,1.64 -0.84,0 -1.64,-0.24 -2.36,-0.76 -0.52,-0.36 -12.64,-9.36 -18.68,-29.16 -3.64,-11.96 -0.2,-25.08 3.32,-34.08 -18.96,11.96 -39.28,18.16 -60.12,18.16 -11.56,0 -51.36,-4.4 -70.96,-8.2 -2.24,-0.44 -4.24,-0.88 -5.88,-1.28 0,0 10.16,13.8 -4,36 -5.24,8.2 -12.72,18.32 -13.08,18.56 -0.72,0.52 -1.52,0.76 -2.36,0.76 -1.24,0 -2.44,-0.56 -3.24,-1.64 -1.28,-1.8 0.92,-24.36 2.68,-25.68 0,-0.16 -14.12,-1.28 -14.12,-1.28 0,0.04 0.04,0.12 0.04,0.12 0.88,2 -0.08,4.36 -2.12,5.24 -0.48,0.24 -1.04,0.32 -1.56,0.32 -1.56,0 -3.04,-0.88 -3.68,-2.4 -0.56,-1.36 -14.12,-33.52 -9.44,-66.32 1.4,-9.88 5.6,-17.36 10.92,-23.04 10.48,-11.24 25.32,-15.36 31.2,-16.6 0.08,0 0.16,-0.04 0.24,-0.04 2.72,-6.2 11.92,-23.96 30.12,-32.32 12.76,-5.84 27.2,-5.84 42.88,0.04 17.24,6.48 39.72,16.08 58.64,24.36 2.68,1.2 5.32,2.36 7.84,3.48 17.12,7.6 29.8,13.4 30.04,13.56 0.24,0.08 0.4,0.28 0.6,0.44 -0.96,1.48 6.04,8.08 11.72,21.12 v 0.04 c 0.12,0.28 0.24,0.6 0.36,0.88 3.48,8.2 6.32,18.92 6.32,32.4 z"
         fill="#bf915a"
         id="path34" />
    </g>
    <g
       id="g36"
       style="display:inline">
      <path
         d="m 185,161.261 c 0,0 10.16,13.8 -4,36 -5.24,8.2 -12.72,18.32 -13.08,18.56 -0.72,0.52 -1.52,0.76 -2.36,0.76 -1.24,0 -2.44,-0.56 -3.24,-1.64 -1.28,-1.8 0.92,-28.36 2.68,-29.68 0,-0.16 -14.12,2.72 -14.12,2.72 0,0.04 0.04,0.12 0.04,0.12 0.88,2 -0.08,4.36 -2.12,5.24 -0.48,0.24 -1.04,0.32 -1.56,0.32 -1.56,0 -3.04,-0.88 -3.68,-2.4 -0.56,-1.36 -14.12,-33.52 -9.44,-66.32 1.4,-9.88 5.6,-17.36 10.92,-23.04 0.16,5.44 2.52,44.2 35.96,55.36 3.92,1.32 7.2,3.08 9.88,5.28 -2.24,-0.44 -4.24,-0.88 -5.88,-1.28 z"
         fill="#89643d"
         id="path35" />
    </g>
    <g
       id="g37"
       style="display:inline">
      <path
         d="m 365,149.261 c 0,28 -2.36,36.92 -4.08,38.64 l -0.12,0.12 c -2.76,-1.04 -5.44,-1.96 -7.8,-2.76 -1.92,-0.64 -3.76,-0.68 -5.48,-0.24 -2.44,0.6 -4.64,2.08 -6.52,3.92 -5.04,4.92 -8,12.32 -8,12.32 l -4,-56 29.32,-29.28 c 3.64,8.32 6.68,19.32 6.68,33.28 z"
         fill="#89643d"
         id="path36" />
    </g>
    <g
       id="g38"
       style="display:inline">
      <path
         d="m 159.195,181.081 c -13.15,0 -22.334,12.199 -22.334,29.668 0,15.414 11.358,33.336 26.002,33.336 8.516,0 18.666,-5.465 18.666,-31.5 0,-15.656 -7.671,-31.504 -22.334,-31.504 z"
         fill="#ffc7be"
         id="path37" />
    </g>
    <g
       id="g39"
       style="display:inline">
      <path
         d="m 146.023,234.381 c 4.56,5.8 10.72,9.72 17.6,9.72 7.24,0 15.6,-3.96 18,-21.08 l -1.76,-1.76 c 0,0 -11.84,-18.52 -19.92,-13.28 -5.52,3.6 -10.96,17.72 -13.92,26.4 z"
         fill="#e59991"
         id="path38" />
    </g>
    <g
       id="g40"
       style="display:inline">
      <path
         d="m 371.24,210.741 c 0,8.2 -3.2,17.12 -8.4,23.64 -4.56,5.8 -10.72,9.72 -17.6,9.72 -7.24,0 -15.6,-3.96 -18,-21.08 -0.4,-3.04 -0.64,-6.52 -0.64,-10.44 0,-15.64 7.64,-31.48 22.32,-31.48 13.16,0 22.32,12.16 22.32,29.64 z"
         fill="#ffc7be"
         id="path39" />
    </g>
    <g
       id="g41"
       style="display:inline">
      <path
         d="m 172.951,230.335 c -1.467,0 -2.881,-0.809 -3.582,-2.211 -3.713,-7.422 -8.529,-14.715 -10.592,-16.098 -2.129,0.258 -4.867,2.348 -5.928,3.394 -1.57,1.543 -4.098,1.543 -5.652,-0.019 -1.553,-1.566 -1.555,-4.086 0.002,-5.645 0.59,-0.59 5.93,-5.758 11.996,-5.758 4.682,0 10.512,6.914 17.33,20.547 0.988,1.976 0.188,4.379 -1.789,5.367 -0.574,0.286 -1.185,0.423 -1.785,0.423 z"
         fill="#b27d7d"
         id="path40" />
    </g>
    <g
       id="g42"
       style="display:inline">
      <path
         d="M 339.748,130.663 H 165.575 c -2.209,0 -4,1.789 -4,4 v 104.723 c 0,40.504 32.949,73.453 73.451,73.453 h 35.272 c 40.502,0 73.451,-32.949 73.451,-73.453 V 134.663 c -0.001,-2.211 -1.792,-4 -4.001,-4 z"
         fill="#ffc7be"
         id="path41" />
    </g>
    <g
       id="g43"
       style="display:inline">
      <path
         d="m 362.84,234.381 c -4.56,5.8 -10.72,9.72 -17.6,9.72 -7.24,0 -15.6,-3.96 -18,-21.08 l 1.76,-1.76 c 0,0 11.84,-18.52 19.92,-13.28 5.52,3.6 10.96,17.72 13.92,26.4 z"
         fill="#e59991"
         id="path42" />
    </g>
    <g
       id="g44"
       style="display:inline">
      <path
         d="m 335.16,230.335 c -0.602,0 -1.211,-0.137 -1.785,-0.422 -1.976,-0.988 -2.777,-3.391 -1.789,-5.367 6.818,-13.633 12.648,-20.547 17.33,-20.547 6.064,0 11.406,5.168 11.994,5.758 1.563,1.562 1.563,4.094 0,5.656 -1.562,1.562 -4.098,1.562 -5.656,0 -1.053,-1.039 -3.791,-3.129 -5.92,-3.387 -2.062,1.383 -6.879,8.676 -10.592,16.098 -0.7,1.402 -2.115,2.211 -3.582,2.211 z m 14.413,-18.449"
         fill="#b27d7d"
         id="path43" />
    </g>
    <g
       id="g45"
       style="display:inline">
      <path
         d="m 358.68,116.861 -1.68,0.4 -24,-12 -24.28,8.36 c 0,0 0.08,-0.12 0.16,-0.36 1.2,-2.48 7.92,-17.32 7.08,-32.44 17.12,7.6 29.8,13.4 30.04,13.56 0.24,0.08 0.4,0.28 0.6,0.44 -0.96,1.48 6.04,8.08 11.72,21.12 v 0.04 c 0.12,0.28 0.24,0.6 0.36,0.88 z"
         fill="#89643d"
         id="path44" />
    </g>
    <g
       id="g50"
       style="display:inline">
      <g
         id="g46">
        <path
           d="m 189,161.261 c 0.88,0.32 1.84,0.72 2.88,1.16 -1.04,-0.36 -1.96,-0.72 -2.84,-1.04 -0.04,-0.04 -0.04,-0.08 -0.04,-0.12 z"
           fill="#e59991"
           id="path45" />
      </g>
      <g
         id="g47">
        <path
           d="m 337.24,149.501 c -23.08,19.2 -48.84,29.24 -75.4,29.24 -35.16,0 -55.32,-9.84 -67.56,-15.28 -0.84,-0.36 -1.64,-0.72 -2.4,-1.04 0.8,0.24 1.64,0.52 2.56,0.8 11.6,3.52 32.44,7.52 67.4,7.52 31.08,0 56.32,-14.68 75.16,-31.8 v 10.32 z"
           fill="#e59991"
           id="path46" />
      </g>
      <g
         id="g48">
        <path
           d="m 189,161.261 c 0.88,0.32 1.84,0.72 2.88,1.16 -1.04,-0.36 -1.96,-0.72 -2.84,-1.04 -0.04,-0.04 -0.04,-0.08 -0.04,-0.12 z"
           fill="#e59991"
           id="path47" />
      </g>
      <g
         id="g49">
        <path
           d="m 194.44,163.221 -0.16,0.24 c -0.84,-0.36 -1.64,-0.72 -2.4,-1.04 0.8,0.24 1.64,0.52 2.56,0.8 z"
           fill="#e59991"
           id="path48" />
      </g>
    </g>
    <g
       id="g51"
       style="display:inline">
      <path
         d="m 339.748,130.663 h -24 c 2.209,0 4,1.789 4,4 v 104.723 c 0,40.504 -32.949,73.453 -73.451,73.453 h 24 c 40.502,0 73.451,-32.949 73.451,-73.453 V 134.663 c 0,-2.211 -1.791,-4 -4,-4 z"
         fill="#e59991"
         id="path50" />
    </g>
    <g
       id="g52"
       style="display:inline">
      <path
         d="m 384.6,81.381 c -0.04,0.08 -0.12,0.24 -0.24,0.48 -1.64,3.4 -11.96,23.6 -30.8,44.04 -27,29.36 -58.72,44.84 -91.72,44.84 -36.84,0 -58.8,-4.36 -71.12,-8.32 -1.32,-0.4 -2.52,-0.84 -3.64,-1.24 0.04,0.2 0.12,0.4 0.16,0.6 1.6,6.28 2.4,14.96 -0.64,24.88 -3.6,11.84 -9.36,19.8 -13.56,24.4 -2.44,2.68 -4.36,4.24 -4.96,4.64 -0.08,0.04 -0.12,0.12 -0.16,0.12 -0.72,0.52 -1.52,0.76 -2.36,0.76 -1.24,0 0.24,-6.24 -0.56,-7.32 -0.4,-0.56 -0.04,-0.04 -3.04,3.48 -0.12,0.12 -0.24,0.28 -0.36,0.4 -0.08,0 0.04,-0.68 0.32,-1.76 0.92,-3.32 3.08,-10.12 3.08,-10.12 v -28 h -16 v -20 l 3.56,-21.32 0.44,-2.68 60,-8 95.72,-7.64 c -0.32,-0.56 -0.48,-1.2 -0.48,-1.88 0,-2.2 1.8,-4 4,-4 14.08,0 52.84,-22.72 66.6,-31.44 1.52,-0.96 3.48,-0.8 4.8,0.36 1.36,1.16 1.72,3.08 0.96,4.72 z"
         fill="#bf915a"
         id="path51" />
    </g>
    <g
       id="g53"
       style="display:inline">
      <path
         d="m 185,161.261 c 0,0 10.16,13.8 -4,36 -4.92,7.68 -11.8,17.08 -12.92,18.44 -0.08,0.04 -0.12,0.12 -0.16,0.12 -0.72,0.52 -1.52,0.76 -2.36,0.76 -1.24,0 -3.76,-2.24 -4.56,-3.32 -0.2,-0.24 -1.4,-30.96 0,-32 l -12,-8 v -20 l 3.56,-21.32 c 5.16,10.32 13.84,12.44 28.44,17.32 3.84,1.28 7.08,11 9.72,13.16 0.04,0.04 0.12,0.08 0.16,0.12 -1.32,-0.24 -2.52,-0.52 -3.64,-0.76 -0.8,-0.16 -1.56,-0.36 -2.24,-0.52 z"
         fill="#89643d"
         id="path52" />
    </g>
    <!-- <g
       id="g54"
       style="display:inline">
      <path
         d="m 301.6,218.181 c 0,10.48 -5.8,18.68 -13.16,18.68 -6,0 -10.92,-5.36 -12.56,-13 -0.4,-1.76 -0.6,-3.68 -0.6,-5.68 0,-10.48 5.76,-18.68 13.16,-18.68 6.12,0 11.2,5.72 12.68,13.68 0.32,1.6 0.48,3.28 0.48,5 z"
         fill="#a2fff6"
         id="path53" />
    </g>
    <g
       id="g55"
       style="display:inline">
      <path
         d="m 228.28,218.181 c 0,2.48 -0.32,4.84 -0.96,7 -1.88,6.92 -6.6,11.68 -12.24,11.68 -7.36,0 -13.16,-8.2 -13.16,-18.68 0,-1.16 0.08,-2.28 0.24,-3.36 1.04,-8.84 6.36,-15.32 12.92,-15.32 7.4,0 13.2,8.2 13.2,18.68 z"
         fill="#a2fff6"
         id="path54" />
    </g>
    <g
       id="g56"
       style="display:inline">
      <path
         d="m 238.2,170.461 -0.84,13.72 c -0.12,2.2 -2.04,3.84 -4.2,3.76 -0.08,0 -8.8,-0.44 -21.88,3.08 -3.04,0.8 -5.6,1.64 -7.76,2.44 -6.84,2.52 -9.48,4.72 -9.52,4.76 -0.76,0.64 -1.68,0.96 -2.64,0.96 -1.08,0 -2.2,-0.44 -2.96,-1.36 l -8.6,-9.68 c -0.76,-0.88 -1.12,-2 -1,-3.16 0.16,-1.16 0.8,-2.16 1.76,-2.8 0.36,-0.24 5.68,-3.8 11.88,-7.2 4.32,-2.36 9.16,-4.68 13,-5.72 14.48,-3.84 28.44,-3.08 29,-3.04 2.2,0.12 3.88,2.04 3.76,4.24 z"
         fill="#bf915a"
         id="path55" />
    </g>
    <g
       id="g57"
       style="display:inline">
      <path
         d="m 320.424,176.909 c -0.264,-1.102 -0.982,-2.043 -1.981,-2.586 -0.615,-0.336 -15.182,-8.222 -24.857,-9.609 -14.742,-2.106 -29.873,0.039 -30.51,0.129 -1.074,0.156 -2.039,0.738 -2.674,1.621 -0.633,0.883 -0.881,1.98 -0.688,3.051 l 2.455,13.527 c 0.39,2.164 2.461,3.621 4.64,3.223 0.086,-0.012 8.672,-1.488 22.096,0.441 12.93,1.852 17.957,5.07 17.965,5.074 0.693,0.48 1.488,0.711 2.273,0.711 1.268,0 2.516,-0.602 3.291,-1.722 l 7.383,-10.656 c 0.65,-0.934 0.869,-2.098 0.607,-3.204 z"
         fill="#bf915a"
         id="path56" />
    </g>
    <g
       id="g58"
       style="display:inline">
      <path
         d="m 256.588,265.085 c -3.1,0 -5.617,-0.789 -6.084,-0.946 -2.098,-0.695 -3.23,-2.961 -2.531,-5.058 0.697,-2.094 2.969,-3.234 5.058,-2.528 1.144,0.364 4.879,1.114 6.807,-0.285 1.113,-0.816 1.68,-2.528 1.68,-5.09 0,-2.562 -0.566,-4.274 -1.68,-5.09 -1.926,-1.394 -5.662,-0.644 -6.824,-0.277 -1.215,0.391 -2.56,0.18 -3.592,-0.57 -1.033,-0.754 -1.654,-1.953 -1.654,-3.23 v -18.332 c 0,-2.211 1.791,-4 4,-4 2.209,0 4,1.789 4,4 v 13.613 c 2.67,-0.125 5.961,0.301 8.734,2.301 2.289,1.648 5.016,4.996 5.016,11.586 0,6.59 -2.726,9.938 -5.016,11.586 -2.496,1.8 -5.396,2.32 -7.914,2.32 z"
         fill="#b27d7d"
         id="path57" />
    </g>
    <g
       id="g59"
       style="display:inline">
      <path
         d="m 256.352,287.265 c -14.529,0 -24.299,-4.805 -24.707,-5.008 -1.976,-0.988 -2.777,-3.39 -1.789,-5.367 0.986,-1.972 3.383,-2.777 5.359,-1.793 0.195,0.094 8.686,4.168 21.137,4.168 7.057,0 9.348,-1.274 9.902,-1.684 0.478,-1.676 2.02,-2.902 3.848,-2.902 2.209,0 4,1.789 4,4 0,2.015 -1.279,8.586 -17.75,8.586 z m 9.75,-8.59 v 0.004 z m 0,-0.008 v 0.004 z"
         fill="#b27d7d"
         id="path58" />
    </g> -->
    <g
       id="g60"
       style="display:inline">
      <path
         d="m 193.076,101.971 c -0.016,0 -0.031,0 -0.047,0 -2.191,-0.027 -3.953,-1.785 -3.953,-3.976 0,-0.664 0.234,-16.34 20.545,-26.496 1.976,-0.98 4.381,-0.188 5.367,1.789 0.988,1.977 0.187,4.379 -1.789,5.367 -15.672,7.836 -16.113,18.918 -16.123,19.387 -0.052,2.172 -1.83,3.929 -4,3.929 z"
         fill="#efcda8"
         id="path59" />
    </g>
    <g
       id="g61"
       style="display:inline">
      <path
         d="m 156.407,124.913 c -2.209,0 -4,-1.789 -4,-4 0,-9.66 7.875,-13.168 13.168,-13.168 2.209,0 4,1.789 4,4 0,2.211 -1.791,4 -4,4 -1.526,0.035 -5.168,0.606 -5.168,5.168 0,2.211 -1.792,4 -4,4 z"
         fill="#efcda8"
         id="path60" />
    </g>
    <!-- <g
       id="g62"
       style="display:inline">
      <path
         d="m 301.6,218.181 c 0,10.48 -5.8,18.68 -13.16,18.68 -6,0 -10.92,-5.36 -12.56,-13 7.72,-1.84 19.88,-5.36 25.12,-10.6 0.04,-0.04 0.08,-0.08 0.12,-0.08 0.32,1.6 0.48,3.28 0.48,5 z"
         fill="#ffffff"
         id="path61" />
    </g>
    <g
       id="g64"
       style="display:inline">
      <g
         id="g63">
        <path
           d="m 320.424,176.909 c -0.264,-1.102 -0.982,-2.043 -1.981,-2.586 -0.615,-0.336 -15.182,-8.222 -24.857,-9.609 -1.38,-0.197 -2.761,-0.346 -4.136,-0.474 6.722,2.686 12.608,5.872 12.994,6.083 0.998,0.543 1.717,1.484 1.981,2.586 0.262,1.106 0.043,2.27 -0.606,3.203 l -7.383,10.656 c -0.328,0.473 -0.772,0.8 -1.234,1.082 8.236,1.794 11.663,3.926 11.669,3.93 0.693,0.48 1.488,0.711 2.273,0.711 1.268,0 2.516,-0.602 3.291,-1.722 l 7.383,-10.656 c 0.649,-0.934 0.868,-2.098 0.606,-3.204 z"
           fill="#89643d"
           id="path62" />
      </g>
    </g>
    <g
       id="g65"
       style="display:inline">
      <path
         d="m 203.52,193.461 c -6.84,2.52 -9.48,4.72 -9.52,4.76 -0.76,0.64 -1.68,0.96 -2.64,0.96 -1.08,0 -2.2,-0.44 -2.96,-1.36 l -8.6,-9.68 c -0.76,-0.88 -1.12,-2 -1,-3.16 0.16,-1.16 0.8,-2.16 1.76,-2.8 0.36,-0.24 5.68,-3.8 11.88,-7.2 z"
         fill="#89643d"
         id="path64" />
    </g>
    <g
       id="g66"
       style="display:inline">
      <path
         d="m 227.32,225.181 c -1.88,6.92 -6.6,11.68 -12.24,11.68 -7.36,0 -13.16,-8.2 -13.16,-18.68 0,-1.16 0.08,-2.28 0.24,-3.36 7.44,4.32 17.92,9.6 25.16,10.36 z"
         fill="#ffffff"
         id="path65" />
    </g>
    <g
       id="g67"
       style="display:inline">
      <path
         d="m 288.436,236.847 c -7.385,0 -13.168,-8.199 -13.168,-18.668 0,-10.469 5.783,-18.668 13.168,-18.668 7.383,0 13.166,8.199 13.166,18.668 0,10.468 -5.783,18.668 -13.166,18.668 z m 0,-29.336 c -2.108,0 -5.168,4.156 -5.168,10.668 0,6.512 3.06,10.668 5.168,10.668 2.106,0 5.166,-4.156 5.166,-10.668 0,-6.512 -3.06,-10.668 -5.166,-10.668 z"
         fill="#b27d7d"
         id="path66" />
    </g>
    <g
       id="g68"
       style="display:inline">
      <path
         d="m 215.1,236.847 c -7.385,0 -13.168,-8.199 -13.168,-18.668 0,-10.469 5.783,-18.668 13.168,-18.668 7.383,0 13.166,8.199 13.166,18.668 0,10.468 -5.783,18.668 -13.166,18.668 z m 0,-29.336 c -2.108,0 -5.168,4.156 -5.168,10.668 0,6.512 3.06,10.668 5.168,10.668 2.106,0 5.166,-4.156 5.166,-10.668 0,-6.512 -3.061,-10.668 -5.166,-10.668 z"
         fill="#b27d7d"
         id="path67" />
    </g> -->
    <g
       id="g69"
       style="display:inline">
      <path
         d="m 165.578,216.585 c -1.238,0 -2.457,-0.57 -3.24,-1.649 -1.295,-1.785 -0.904,-4.277 0.875,-5.578 0.236,-0.18 10.574,-8.062 15.746,-25.035 5.096,-16.734 -2.881,-28.984 -2.963,-29.105 -1.098,-1.645 -0.826,-3.848 0.639,-5.18 1.465,-1.332 3.682,-1.39 5.215,-0.14 0.125,0.094 17.408,12.852 79.979,12.852 56.182,0 93.158,-47.832 108.086,-71.652 -16.652,9.781 -44.182,24.648 -57.666,24.648 -2.209,0 -4,-1.789 -4,-4 0,-2.211 1.791,-4 4,-4 14.078,0 52.852,-22.711 66.606,-31.461 1.502,-0.949 3.461,-0.797 4.793,0.375 1.336,1.18 1.73,3.102 0.969,4.711 -1.728,3.652 -43.25,89.379 -122.787,89.379 -40.797,0 -63.307,-5.324 -74.758,-9.555 1.736,6.359 2.658,15.226 -0.459,25.457 -6.029,19.793 -18.172,28.797 -18.686,29.168 -0.712,0.515 -1.534,0.765 -2.349,0.765 z"
         fill="#89643d"
         id="path68" />
    </g>
  </g>
    <g
     id="g74"
     transform="translate(2,-35)">
    <g
       id="g19">
      <circle
         cx="145"
         cy="277.26099"
         fill="#5e21bd"
         r="12"
         id="circle18" />
    </g>
    <g
       id="g34"
       style="display:inline">
      <path
         d="m 145,289.261 c -6.617,0 -12,-5.383 -12,-12 0,-6.617 5.383,-12 12,-12 4.748,0 9.057,2.805 10.978,7.141 0.895,2.019 -0.02,4.383 -2.039,5.277 -2.018,0.898 -4.383,-0.02 -5.278,-2.035 -0.631,-1.426 -2.102,-2.383 -3.662,-2.383 -2.205,0 -4,1.793 -4,4 -0.002,2.551 2.482,4.613 5.074,3.84 2.105,-0.621 4.34,0.59 4.963,2.715 0.621,2.121 -0.594,4.344 -2.713,4.965 -1.075,0.312 -2.223,0.48 -3.323,0.48 z"
         fill="#3b1577"
         id="path33" />
    </g>
  </g>
  <g
     id="g74"
     transform="translate(213,-35)">
    <g
       id="g19">
      <circle
         cx="145"
         cy="277.26099"
         fill="#5e21bd"
         r="12"
         id="circle18" />
    </g>
    <g
       id="g34"
       style="display:inline">
      <path
         d="m 145,289.261 c -6.617,0 -12,-5.383 -12,-12 0,-6.617 5.383,-12 12,-12 4.748,0 9.057,2.805 10.978,7.141 0.895,2.019 -0.02,4.383 -2.039,5.277 -2.018,0.898 -4.383,-0.02 -5.278,-2.035 -0.631,-1.426 -2.102,-2.383 -3.662,-2.383 -2.205,0 -4,1.793 -4,4 -0.002,2.551 2.482,4.613 5.074,3.84 2.105,-0.621 4.34,0.59 4.963,2.715 0.621,2.121 -0.594,4.344 -2.713,4.965 -1.075,0.312 -2.223,0.48 -3.323,0.48 z"
         fill="#3b1577"
         id="path33" />
    </g>
  </g>
</svg>
